<?xml version="1.0" encoding="UTF-8"?>
<svg id="Layer_1" xmlns="http://www.w3.org/2000/svg" version="1.1" xmlns:xlink="http://www.w3.org/1999/xlink" viewBox="0 0 5657 4000">
  <!-- Generator: Adobe Illustrator 29.3.1, SVG Export Plug-In . SVG Version: 2.1.0 Build 151)  -->
  <defs>
    <style>
      .st0 {
        fill: url(#linear-gradient1);
      }

      .st1 {
        clip-path: url(#clippath-1);
      }

      .st2 {
        clip-rule: evenodd;
        fill: none;
      }

      .st3 {
        fill: url(#linear-gradient);
      }

      .st4 {
        clip-path: url(#clippath);
      }
    </style>
    <clipPath id="clippath">
      <path class="st2" d="M3091.95,2366.34c-176.78,0-327.6-62.73-452.44-188.15-125.44-124.85-188.15-275.67-188.15-452.48s62.71-327.33,188.15-452.16c124.85-125.44,275.66-188.15,452.44-188.15,86.92,0,169.95,17.01,249.37,50.77l-18.52,42.71c-73.46-30.77-150.52-46.3-230.86-46.3-163.95,0-303.72,57.95-419,174.12-116.17,115.58-174.09,255.35-174.09,419.01s57.92,303.14,174.09,419.31c115.28,115.87,255.05,174.12,419,174.12,75.87,0,148.44-13.73,217.71-41.21v-533.4h-314.76v-46.58h362.26v611.63l-14.92,5.99c-79.45,33.73-162.77,50.77-250.28,50.77"/>
    </clipPath>
    <linearGradient id="linear-gradient" x1="2903.36" y1="842.2" x2="2904.9" y2="2361.5" gradientUnits="userSpaceOnUse">
      <stop offset="0" stop-color="#fffb90"/>
      <stop offset=".13" stop-color="#fbec7a"/>
      <stop offset=".24" stop-color="#f8dc65"/>
      <stop offset=".33" stop-color="#c8a443"/>
      <stop offset=".49" stop-color="#996c22"/>
      <stop offset=".62" stop-color="#caaa4d"/>
      <stop offset=".69" stop-color="#fbe878"/>
      <stop offset=".73" stop-color="#fdf491"/>
      <stop offset=".77" stop-color="#ffa"/>
      <stop offset=".8" stop-color="#fdf491"/>
      <stop offset=".83" stop-color="#fbe878"/>
      <stop offset=".92" stop-color="#d0a549"/>
      <stop offset="1" stop-color="#a4631b"/>
    </linearGradient>
    <clipPath id="clippath-1">
      <polygon class="st2" points="3097.53 1095.25 3097.53 1697.95 2347.04 1697.95 2347.04 1095.25 2299.85 1095.25 2299.85 2351.7 2347.04 2351.7 2347.04 1744.53 3097.53 1744.53 3144.12 1744.53 3144.12 1095.25 3097.53 1095.25"/>
    </clipPath>
    <linearGradient id="linear-gradient1" x1="2721.24" y1="856.82" x2="2722.52" y2="2346.91" xlink:href="#linear-gradient"/>
  </defs>
  <rect width="5657" height="4000"/>
  <g class="st4">
    <rect class="st3" x="2451.36" y="1085.41" width="905.79" height="1280.94"/>
  </g>
  <g class="st1">
    <rect class="st0" x="2299.85" y="1095.25" width="844.27" height="1256.45"/>
  </g>
</svg>